<mxfile host="app.diagrams.net" modified="2024-02-06T02:07:01.701Z" agent="Mozilla/5.0 (Windows NT 10.0; Win64; x64) AppleWebKit/537.36 (KHTML, like Gecko) Chrome/121.0.0.0 Safari/537.36" version="23.1.1" etag="RDfesK1aWYbQPlSuEdqq" type="github">
  <diagram name="Page-1" id="172PMM-8TWrTYju-5k1b">
    <mxGraphModel>
      <root>
        <mxCell id="0" />
        <mxCell id="1" parent="0" />
      </root>
    </mxGraphModel>
  </diagram>
</mxfile>
